<svg width="180" height="180" viewBox="0 0 180 180" fill="none" xmlns="http://www.w3.org/2000/svg">
<g clip-path="url(#clip0_240_6)">
<path d="M84.375 0C97.4082 0 100.295 0.052059 110.687 5.95459C114.007 7.8199 114.007 7.8199 117.394 9.7229C119.666 11.039 121.937 12.355 124.277 13.7109C126.581 15.0052 128.885 16.2995 131.259 17.6331C148.18 27.2423 148.18 27.2423 154.688 33.75C155.096 41.4699 155.212 48.8948 155.039 56.6016C155.014 58.7225 154.988 60.8434 154.962 63.0286C154.896 68.2694 154.795 73.5098 154.688 78.75C161.184 78.75 167.681 78.75 174.375 78.75C174.375 109.378 174.375 140.006 174.375 171.562C176.231 171.562 178.087 171.562 180 171.562C180 174.347 180 177.131 180 180C120.6 180 61.2 180 0 180C0 177.216 0 174.431 0 171.562C1.85625 171.562 3.7125 171.562 5.625 171.562C5.625 149.287 5.625 127.012 5.625 104.062C11.2771 103.892 16.9293 103.722 22.7527 103.546C28.2072 103.37 33.6617 103.194 39.1161 103.015C42.9163 102.893 46.7167 102.776 50.5172 102.664C55.9698 102.502 61.4218 102.321 66.8738 102.14C70.1582 102.037 73.4427 101.934 76.8267 101.827C84.1438 102.092 84.1438 102.092 87.1875 98.4375C91.8736 98.3232 96.564 98.3173 101.25 98.4375C101.25 94.725 101.25 91.0125 101.25 87.1875C95.6812 87.1875 90.1125 87.1875 84.375 87.1875C85.3031 84.4031 86.2312 81.6187 87.1875 78.75C91.8281 78.75 96.4687 78.75 101.25 78.75C101.25 75.0375 101.25 71.325 101.25 67.5C95.6812 67.5 90.1125 67.5 84.375 67.5C85.3031 64.7156 86.2312 61.9312 87.1875 59.0625C91.8281 59.0625 96.4687 59.0625 101.25 59.0625C101.25 55.35 101.25 51.6375 101.25 47.8125C86.4 47.8125 71.55 47.8125 56.25 47.8125C56.25 58.95 56.25 70.0875 56.25 81.5625C52.5375 81.5625 48.825 81.5625 45 81.5625C44.9245 75.0588 44.8697 68.5548 44.8242 62.0508C44.7916 58.4289 44.759 54.8071 44.7253 51.0754C45 42.1875 45 42.1875 47.8125 39.375C60.0056 38.9702 72.1732 39.2565 84.375 39.375C84.375 26.3813 84.375 13.3875 84.375 0ZM95.625 14.0625C95.625 22.4156 95.625 30.7688 95.625 39.375C100.266 39.375 104.906 39.375 109.688 39.375C109.688 82.9969 109.688 126.619 109.688 171.562C113.4 171.562 117.112 171.562 120.938 171.562C120.938 140.934 120.938 110.306 120.938 78.75C128.363 78.75 135.787 78.75 143.438 78.75C143.438 64.8281 143.438 50.9062 143.438 36.5625C136.531 32.7983 129.616 29.0507 122.695 25.3125C120.73 24.2394 118.765 23.1662 116.741 22.0605C106.754 16.1515 106.754 16.1515 95.625 14.0625ZM129.375 87.1875C129.375 115.031 129.375 142.875 129.375 171.562C141.441 171.562 153.506 171.562 165.938 171.562C165.938 169.706 165.938 167.85 165.938 165.938C161.297 165.938 156.656 165.938 151.875 165.938C151.875 163.153 151.875 160.369 151.875 157.5C156.516 157.5 161.156 157.5 165.938 157.5C165.938 153.787 165.938 150.075 165.938 146.25C158.512 146.25 151.088 146.25 143.438 146.25C143.438 143.466 143.438 140.681 143.438 137.812C150.863 137.812 158.287 137.812 165.938 137.812C165.938 134.1 165.938 130.388 165.938 126.562C158.512 126.562 151.088 126.562 143.438 126.562C143.438 123.778 143.438 120.994 143.438 118.125C150.863 118.125 158.287 118.125 165.938 118.125C165.938 114.412 165.938 110.7 165.938 106.875C158.512 106.875 151.088 106.875 143.438 106.875C143.438 104.091 143.438 101.306 143.438 98.4375C150.863 98.4375 158.287 98.4375 165.938 98.4375C165.938 94.725 165.938 91.0125 165.938 87.1875C153.872 87.1875 141.806 87.1875 129.375 87.1875ZM84.375 106.875C84.375 111.516 84.375 116.156 84.375 120.938C89.9438 120.009 95.5125 119.081 101.25 118.125C101.25 114.412 101.25 110.7 101.25 106.875C95.6812 106.875 90.1125 106.875 84.375 106.875ZM14.0625 112.5C14.0625 131.991 14.0625 151.481 14.0625 171.562C34.4813 171.562 54.9 171.562 75.9375 171.562C75.9375 152.072 75.9375 132.581 75.9375 112.5C55.5187 112.5 35.1 112.5 14.0625 112.5ZM84.375 126.562C84.375 131.203 84.375 135.844 84.375 140.625C89.9438 139.697 95.5125 138.769 101.25 137.812C101.25 134.1 101.25 130.388 101.25 126.562C95.6812 126.562 90.1125 126.562 84.375 126.562ZM84.375 146.25C84.375 150.891 84.375 155.531 84.375 160.312C89.9438 159.384 95.5125 158.456 101.25 157.5C101.25 153.787 101.25 150.075 101.25 146.25C95.6812 146.25 90.1125 146.25 84.375 146.25ZM84.375 165.938C84.375 167.794 84.375 169.65 84.375 171.562C89.9438 171.562 95.5125 171.562 101.25 171.562C101.25 169.706 101.25 167.85 101.25 165.938C95.6812 165.938 90.1125 165.938 84.375 165.938Z" fill="#FC883D"/>
<path d="M19.6875 118.125C27.1125 118.125 34.5375 118.125 42.1875 118.125C42.1875 125.55 42.1875 132.975 42.1875 140.625C35.6261 140.744 29.0615 140.74 22.5 140.625C19.6875 137.812 19.6875 137.812 19.5117 127.793C19.5697 124.603 19.6277 121.412 19.6875 118.125Z" fill="#FC883D"/>
<path d="M30.9356 143.086C39.3731 143.438 39.3731 143.438 42.1856 146.25C42.3007 152.811 42.3049 159.376 42.1856 165.938C34.7606 165.938 27.3356 165.938 19.6856 165.938C19.5663 159.376 19.5705 152.811 19.6856 146.25C22.4981 143.438 22.4981 143.438 30.9356 143.086Z" fill="#FC883D"/>
<path d="M60.6445 117.949C63.835 118.007 67.0254 118.065 70.3125 118.125C70.3125 125.55 70.3125 132.975 70.3125 140.625C63.7511 140.744 57.1865 140.74 50.625 140.625C47.8125 137.812 47.8125 137.812 47.4609 129.375C47.969 117.182 48.1424 118.169 60.6445 117.949Z" fill="#FC883D"/>
<path d="M67.5 143.437C70.3125 146.25 70.3125 146.25 70.4883 156.27C70.4303 159.46 70.3723 162.65 70.3125 165.937C63.7511 166.057 57.1865 166.053 50.625 165.937C47.8125 163.125 47.8125 163.125 47.6367 154.512C47.6947 151.785 47.7527 149.059 47.8125 146.25C54.7991 142.757 59.7712 143.041 67.5 143.437Z" fill="#FC883D"/>
<path d="M132.188 59.0625C134.972 59.9906 137.756 60.9187 140.625 61.875C139.697 66.5156 138.769 71.1562 137.812 75.9375C135.028 75.0094 132.244 74.0813 129.375 73.125C130.303 68.4844 131.231 63.8438 132.188 59.0625Z" fill="#FC883D"/>
<path d="M118.125 59.0625C120.909 59.9906 123.694 60.9187 126.562 61.875C125.634 66.5156 124.706 71.1562 123.75 75.9375C120.966 75.0094 118.181 74.0813 115.312 73.125C116.241 68.4844 117.169 63.8438 118.125 59.0625Z" fill="#FC883D"/>
<path d="M129.375 39.375C133.088 39.375 136.8 39.375 140.625 39.375C140.625 44.0156 140.625 48.6562 140.625 53.4375C136.912 53.4375 133.2 53.4375 129.375 53.4375C129.375 48.7969 129.375 44.1563 129.375 39.375Z" fill="#FC883D"/>
<path d="M115.312 39.375C119.025 39.375 122.737 39.375 126.562 39.375C126.562 44.0156 126.562 48.6562 126.562 53.4375C122.85 53.4375 119.138 53.4375 115.312 53.4375C115.312 48.7969 115.312 44.1563 115.312 39.375Z" fill="#FC883D"/>
<path d="M50.625 87.1875C52.4813 88.1156 54.3375 89.0437 56.25 90C55.3219 92.7844 54.3938 95.5688 53.4375 98.4375C50.6531 97.5094 47.8687 96.5813 45 95.625C46.8563 92.8406 48.7125 90.0562 50.625 87.1875Z" fill="#FC883D"/>
<path d="M135 157.5C137.784 157.5 140.569 157.5 143.438 157.5C143.438 160.284 143.438 163.069 143.438 165.938C140.653 165.938 137.869 165.938 135 165.938C135 163.153 135 160.369 135 157.5Z" fill="#FC883D"/>
</g>
<defs>
<clipPath id="clip0_240_6">
<rect width="180" height="180" fill="white"/>
</clipPath>
</defs>
</svg>
