<svg width="180" height="180" viewBox="0 0 180 180" fill="none" xmlns="http://www.w3.org/2000/svg">
<g clip-path="url(#clip0_240_18)">
<path d="M96.3272 1.40632C97.5624 2.27312 98.6954 3.23997 99.8428 4.21882C100.777 4.9849 101.716 5.74403 102.655 6.50398C103.146 6.90307 103.637 7.30224 104.128 7.70149C105.156 8.53753 106.189 9.36886 107.226 10.1954C109.007 11.6157 110.773 13.0545 112.54 14.4924C113.812 15.5262 115.085 16.5567 116.366 17.5782C118.148 18.9985 119.914 20.4374 121.681 21.8752C123.223 23.1292 124.771 24.3746 126.325 25.6133C127.308 26.4019 128.285 27.1971 129.261 27.9931C131.27 29.6303 133.285 31.2561 135.329 32.8492C137.678 34.6823 139.975 36.5756 142.271 38.4742C145.484 41.1301 148.724 43.7526 151.984 46.3514C153.491 47.5602 154.987 48.7811 156.486 50.0002C157.757 51.034 159.03 52.0645 160.312 53.086C161.843 54.3069 163.363 55.5415 164.882 56.7774C169.103 60.2372 169.103 60.2372 173.462 63.5189C174.273 64.1929 174.688 64.8059 174.856 65.8494C174.864 66.1476 174.872 66.4458 174.879 66.753C174.894 67.0494 174.908 67.3458 174.922 67.6511C174.726 68.5548 174.726 68.5548 172.968 70.3126C166.587 70.3126 160.206 70.3126 153.632 70.3126C153.632 98.6204 153.632 126.928 153.632 156.094C156.88 156.094 160.129 156.094 163.476 156.094C165.454 158.072 165.454 158.072 165.461 159.895C165.466 160.298 165.472 160.7 165.478 161.115C165.472 161.762 165.472 161.762 165.467 162.422C165.469 162.868 165.47 163.314 165.472 163.773C165.473 164.716 165.471 165.657 165.463 166.599C165.453 167.804 165.458 169.008 165.469 170.213C165.477 171.366 165.471 172.519 165.467 173.672C165.47 174.103 165.474 174.535 165.478 174.979C165.472 175.382 165.467 175.784 165.461 176.199C165.46 176.552 165.458 176.905 165.457 177.269C165.144 178.634 164.554 179.122 163.476 180C162.317 180.221 162.317 180.221 160.969 180.222C160.72 180.225 160.47 180.228 160.213 180.23C159.374 180.237 158.536 180.231 157.697 180.226C157.091 180.228 156.484 180.231 155.878 180.235C154.21 180.243 152.542 180.24 150.874 180.235C149.075 180.232 147.277 180.239 145.479 180.244C141.955 180.253 138.431 180.253 134.908 180.249C132.045 180.246 129.181 180.246 126.318 180.249C125.708 180.25 125.708 180.25 125.085 180.25C124.258 180.251 123.431 180.252 122.604 180.252C114.845 180.259 107.086 180.255 99.3271 180.247C92.6659 180.241 86.0049 180.245 79.3437 180.256C71.613 180.269 63.8824 180.275 56.1517 180.27C55.3277 180.27 54.5037 180.269 53.6798 180.269C53.2744 180.268 52.8689 180.268 52.4512 180.268C49.5907 180.267 46.7303 180.271 43.8698 180.277C40.385 180.284 36.9002 180.284 33.4154 180.274C31.6366 180.269 29.8578 180.268 28.079 180.275C26.4516 180.282 24.8246 180.279 23.1973 180.269C22.6075 180.267 22.0177 180.268 21.4279 180.273C20.6279 180.28 19.8289 180.274 19.0289 180.265C18.5841 180.264 18.1394 180.264 17.6811 180.264C16.0501 179.892 15.6844 179.266 14.7647 177.891C14.5415 176.888 14.5415 176.888 14.5373 175.84C14.5317 175.444 14.5262 175.049 14.5205 174.642C14.524 174.22 14.5276 173.798 14.5312 173.363C14.5296 172.925 14.5279 172.488 14.5262 172.037C14.5247 170.877 14.5317 169.718 14.5415 168.559C14.545 167.849 14.5416 167.14 14.5355 166.43C14.5247 165.064 14.526 163.699 14.5312 162.333C14.5277 161.91 14.5241 161.487 14.5205 161.052C14.526 160.658 14.5315 160.263 14.5373 159.857C14.5387 159.512 14.5401 159.166 14.5415 158.81C14.8582 157.451 15.4195 156.929 16.5225 156.094C17.6257 155.894 17.6257 155.894 18.8475 155.922C19.286 155.928 19.7244 155.933 20.1762 155.939C20.6309 155.954 21.0857 155.969 21.5543 155.984C22.0158 155.992 22.4774 156 22.953 156.008C24.0911 156.029 25.2285 156.058 26.3663 156.094C26.3639 155.733 26.3616 155.372 26.3592 155C26.3378 151.597 26.322 148.193 26.3116 144.789C26.3061 143.04 26.2987 141.29 26.2867 139.54C26.2752 137.851 26.2689 136.162 26.2662 134.473C26.2643 133.829 26.2605 133.185 26.2548 132.541C26.2471 131.638 26.2461 130.735 26.2465 129.832C26.2427 129.567 26.239 129.302 26.235 129.028C26.2448 127.359 26.5358 126.222 27.421 124.805C28.374 124.032 28.9993 123.777 30.2115 123.596C31.5738 123.791 32.3268 124.31 33.3975 125.156C33.9573 126.276 33.7945 127.485 33.789 128.715C33.789 129.014 33.7891 129.314 33.7891 129.623C33.7889 130.596 33.7862 131.569 33.7834 132.542C33.7829 133.142 33.7825 133.741 33.7823 134.341C33.7805 136.567 33.7756 138.794 33.7711 141.021C33.7638 145.995 33.7566 150.969 33.7491 156.094C47.0909 156.094 60.4327 156.094 74.1788 156.094C74.0628 116.997 73.9467 77.8993 73.8272 37.6173C72.203 39.0094 70.5788 40.4016 68.9053 41.836C66.3785 43.8355 66.3785 43.8355 65.1411 44.7982C63.7968 45.8449 62.4798 46.9237 61.1641 48.0062C58.1008 50.5235 55.0206 53.0203 51.9205 55.492C50.6633 56.5007 49.4133 57.518 48.1631 58.5352C46.3774 59.9882 44.5868 61.4342 42.7867 62.8693C41.2469 64.1047 39.7165 65.3516 38.1855 66.5978C37.7318 66.9671 37.2776 67.3358 36.823 67.704C36.2803 68.146 35.7428 68.5943 35.2061 69.0437C34.4522 69.6094 34.4522 69.6094 33.7491 69.6094C33.7522 69.9535 33.7553 70.2975 33.7585 70.652C33.7871 73.8953 33.8081 77.1386 33.8219 80.382C33.8293 82.0494 33.8392 83.7168 33.8552 85.3842C33.8705 86.9935 33.8789 88.6028 33.8825 90.2121C33.8851 90.8259 33.8902 91.4397 33.8978 92.0535C33.908 92.9137 33.9094 93.7735 33.9087 94.6338C33.9138 94.8872 33.9188 95.1406 33.9241 95.4016C33.9102 97.096 33.5448 97.9518 32.3428 99.1407C31.2062 99.709 30.0558 99.6974 28.8272 99.4923C27.7961 98.9403 26.9166 98.2577 26.4882 97.1301C26.3175 96.0077 26.3244 94.9158 26.3264 93.7804C26.3263 93.5264 26.3263 93.2725 26.3262 93.0109C26.3264 92.1739 26.3292 91.3369 26.3319 90.4999C26.3326 89.9187 26.3331 89.3374 26.3334 88.7561C26.3348 87.228 26.3382 85.6999 26.3421 84.1718C26.3457 82.6117 26.3473 81.0517 26.3491 79.4916C26.3529 76.432 26.3589 73.3723 26.3663 70.3126C26.1279 70.3165 25.8896 70.3204 25.644 70.3244C23.1633 70.3633 20.6826 70.3898 18.2016 70.4091C17.2758 70.418 16.3499 70.43 15.4241 70.4452C14.0933 70.4665 12.7627 70.4765 11.4317 70.4842C10.8109 70.4978 10.8109 70.4978 10.1776 70.5117C6.97594 70.5128 6.97594 70.5128 5.89093 69.4779C5.22439 68.4829 5.03425 67.9837 5.0528 66.7969C5.04826 66.5069 5.04373 66.2169 5.03906 65.918C5.5547 63.9768 7.62419 62.7342 9.11774 61.4796C9.31612 61.3123 9.5145 61.1449 9.71889 60.9726C11.3133 59.6365 12.9421 58.3487 14.584 57.0718C16.2505 55.7719 17.8834 54.4344 19.5108 53.086C21.3089 51.5966 23.1174 50.1256 24.96 48.6915C27.0968 47.0281 29.1883 45.3134 31.275 43.5877C32.8322 42.3002 34.3989 41.0265 35.9807 39.7692C37.2349 38.7662 38.48 37.7521 39.7256 36.7384C41.5136 35.2835 43.3066 33.8357 45.1089 32.3988C46.3661 31.3901 47.6161 30.3728 48.8663 29.3555C50.6543 27.9007 52.4472 26.4529 54.2496 25.0159C55.5067 24.0073 56.7567 22.99 58.0069 21.9727C59.7949 20.5179 61.5879 19.0701 63.3902 17.6331C64.6473 16.6245 65.8973 15.6071 67.1475 14.5899C68.9368 13.1341 70.7307 11.6849 72.5349 10.2476C73.5246 9.45292 74.5079 8.65075 75.4908 7.84766C76.4596 7.05742 77.4315 6.27096 78.4042 5.48551C78.8517 5.12342 79.2982 4.76017 79.7435 4.39546C84.5396 0.475349 90.4253 -2.16536 96.3272 1.40632ZM84.0072 10.6544C83.0505 11.4829 82.072 12.2836 81.0934 13.086C80.5827 13.5047 80.0729 13.9246 79.564 14.3456C78.0208 15.6224 76.4624 16.8754 74.8819 18.1055C72.7451 19.7689 70.6536 21.4836 68.5669 23.2093C67.0097 24.4968 65.443 25.7705 63.8612 27.0278C62.607 28.0308 61.3619 29.0449 60.1163 30.0587C58.3283 31.5135 56.5353 32.9613 54.733 34.3983C53.4758 35.4069 52.2258 36.4242 50.9756 37.4415C49.1859 38.8977 47.3913 40.3471 45.5869 41.7852C44.6043 42.5738 43.6274 43.369 42.6508 44.165C40.6423 45.8022 38.6272 47.428 36.5836 49.0211C34.2351 50.8538 31.9387 52.7467 29.6429 54.6447C28.1458 55.8821 26.6427 57.112 25.1358 58.3375C24.9029 58.527 24.67 58.7165 24.4301 58.9117C22.9162 60.1399 21.3864 61.3442 19.8294 62.5178C19.6663 62.6537 19.5031 62.7897 19.335 62.9298C19.335 63.0458 19.335 63.1618 19.335 63.2813C20.8162 63.3605 22.2962 63.4174 23.7789 63.4551C24.2813 63.4709 24.7835 63.4924 25.2854 63.52C28.0223 63.6669 30.1155 63.6564 32.3456 61.8311C32.9381 61.2676 33.5237 60.6967 34.1006 60.1173C34.5899 59.7072 35.0843 59.3031 35.5852 58.9074C35.8084 58.7259 36.0316 58.5444 36.2615 58.3574C36.4838 58.1768 36.7061 57.9962 36.9351 57.8101C37.1769 57.6137 37.4187 57.4172 37.6678 57.2148C39.2068 55.9654 40.7517 54.7239 42.3019 53.4884C43.2845 52.6998 44.2614 51.9046 45.238 51.1086C47.2464 49.4714 49.2615 47.8455 51.3052 46.2525C53.4155 44.6069 55.4804 42.9099 57.5409 41.2026C59.1136 39.9025 60.7027 38.628 62.3135 37.3756C64.0934 35.9912 65.8221 34.5584 67.535 33.0922C69.1201 31.7416 70.7487 30.4529 72.3909 29.1727C74.3017 27.6825 76.1744 26.1486 78.046 24.6094C79.6833 23.2668 81.3252 21.9301 82.974 20.6017C83.4286 20.2347 83.8823 19.8666 84.3349 19.4972C84.9454 18.9999 85.5599 18.5081 86.1758 18.0176C86.5248 17.7367 86.8737 17.4557 87.2333 17.1662C88.3615 16.4468 89.014 16.1924 90.3506 16.1719C92.1919 16.7645 93.5242 17.7064 94.9429 18.9844C95.3437 19.3345 95.7452 19.6837 96.1473 20.0323C96.3515 20.2096 96.5557 20.387 96.7661 20.5697C97.7388 21.3976 98.7453 22.1795 99.7549 22.9615C101.922 24.6458 104.043 26.3819 106.157 28.1309C107.715 29.4185 109.282 30.6923 110.863 31.9497C112.118 32.9527 113.363 33.9668 114.608 34.9805C116.128 36.2166 117.647 37.4511 119.179 38.6719C120.96 40.0922 122.726 41.5311 124.493 42.969C125.765 44.0028 127.038 45.0333 128.319 46.0548C130.101 47.475 131.867 48.9139 133.634 50.3518C134.905 51.3856 136.179 52.4161 137.46 53.4376C138.991 54.6585 140.511 55.893 142.03 57.129C145.181 59.6949 145.181 59.6949 148.358 62.2266C148.553 62.41 148.748 62.5934 148.948 62.7824C150.09 63.4801 150.955 63.4007 152.286 63.3843C152.646 63.3821 152.646 63.3821 153.013 63.3798C153.776 63.3739 154.539 63.3607 155.302 63.3472C155.82 63.3419 156.339 63.3371 156.858 63.3328C158.126 63.3212 159.395 63.303 160.663 63.2813C159.683 62.2862 158.706 61.3202 157.624 60.4359C157.271 60.1464 157.271 60.1464 156.911 59.851C156.663 59.6488 156.415 59.4467 156.159 59.2384C155.898 59.0248 155.637 58.8113 155.368 58.5914C154.556 57.927 153.743 57.2642 152.929 56.6016C152.674 56.3942 152.42 56.1867 152.158 55.973C149.692 53.9623 147.221 51.9602 144.733 49.9769C143.226 48.7681 141.73 47.5471 140.231 46.328C138.96 45.2943 137.687 44.2637 136.405 43.2423C134.624 41.822 132.858 40.3831 131.091 38.9452C129.819 37.9114 128.546 36.8809 127.265 35.8594C125.483 34.4392 123.717 33.0003 121.95 31.5624C120.679 30.5286 119.405 29.4981 118.124 28.4766C116.343 27.0563 114.577 25.6175 112.809 24.1796C111.538 23.1458 110.265 22.1153 108.983 21.0938C107.452 19.8729 105.932 18.6384 104.413 17.4024C102.62 15.9436 100.824 14.4885 99.0161 13.0477C98.255 12.4404 97.4954 11.8313 96.7365 11.2212C96.4986 11.0302 96.2607 10.8393 96.0156 10.6425C95.5435 10.2635 95.0717 9.88418 94.6002 9.50453C94.2757 9.24422 94.2757 9.24422 93.9445 8.97865C93.7515 8.82349 93.5585 8.66833 93.3596 8.50847C91.9494 7.42138 91.0502 7.07735 89.2905 7.12059C87.1822 7.64766 85.6126 9.25504 84.0072 10.6544ZM88.3456 25.6243C88.0878 25.8384 87.8299 26.0526 87.5642 26.2732C87.2946 26.5 87.0249 26.7268 86.7471 26.9605C86.4829 27.1805 86.2187 27.4006 85.9465 27.6273C85.4463 28.0441 84.9467 28.4616 84.4479 28.88C83.671 29.5313 83.671 29.5313 82.5827 30.2549C81.9266 30.8066 81.607 31.13 81.37 31.9598C81.3019 32.7886 81.3006 33.5941 81.3221 34.4255C81.3218 34.7378 81.3215 35.0501 81.3212 35.3718C81.3226 36.4012 81.339 37.4298 81.3556 38.4591C81.3595 39.1738 81.3625 39.8886 81.3646 40.6034C81.3727 42.4825 81.3934 44.3612 81.4167 46.2402C81.4421 48.4958 81.4518 50.7515 81.4641 53.0072C81.4845 56.4321 81.525 59.8563 81.5616 63.2813C91.0749 63.2813 100.588 63.2813 110.39 63.2813C110.513 59.6703 110.636 56.0593 110.763 52.3389C110.818 51.2091 110.872 50.0792 110.928 48.9152C111.246 43.6339 111.246 43.6339 109.119 39.0287C107.905 37.9278 106.6 37.0759 105.166 36.2906C103.998 35.6217 102.989 34.7785 101.952 33.9259C101.556 33.6154 101.159 33.3059 100.762 32.9975C99.2851 31.8375 97.8397 30.6403 96.3931 29.4434C94.0107 27.4724 94.0107 27.4724 91.6031 25.5323C91.3715 25.3483 91.1399 25.1643 90.9013 24.9747C89.7718 24.2255 89.2681 24.8531 88.3456 25.6243ZM117.773 47.1094C117.773 52.4462 117.773 57.7829 117.773 63.2813C124.385 63.2813 130.998 63.2813 137.812 63.2813C136.319 61.7868 136.319 61.7868 134.748 60.4111C134.509 60.2147 134.271 60.0182 134.025 59.8158C133.773 59.6108 133.522 59.4057 133.263 59.1944C132.999 58.9776 132.734 58.7607 132.462 58.5373C130.669 57.0721 128.858 55.6329 127.03 54.2127C125.042 52.6623 123.106 51.0505 121.177 49.4276C120.937 49.2277 120.697 49.0279 120.45 48.8219C120.133 48.5551 120.133 48.5551 119.809 48.2828C119.086 47.7145 119.086 47.7145 117.773 47.1094ZM81.5616 70.3126C81.5616 93.5157 81.5616 116.719 81.5616 140.625C88.1745 140.625 94.7874 140.625 101.601 140.625C101.674 136.423 101.674 136.423 101.737 132.222C101.748 131.693 101.76 131.163 101.772 130.634C101.775 130.363 101.777 130.091 101.779 129.811C101.822 128.208 102.006 127.133 103.007 125.859C105.218 124.754 107.921 125.286 110.39 125.156C110.39 107.058 110.39 88.9594 110.39 70.3126C100.876 70.3126 91.3631 70.3126 81.5616 70.3126ZM117.773 70.3126C117.773 75.6493 117.773 80.986 117.773 86.4844C127.17 86.4844 136.567 86.4844 146.249 86.4844C146.249 81.1477 146.249 75.811 146.249 70.3126C136.852 70.3126 127.455 70.3126 117.773 70.3126ZM117.773 93.5157C117.773 103.957 117.773 114.399 117.773 125.156C120.209 125.156 122.645 125.156 125.155 125.156C125.177 124.179 125.198 123.201 125.22 122.194C125.242 121.248 125.264 120.302 125.286 119.356C125.301 118.699 125.316 118.041 125.33 117.383C125.35 116.438 125.373 115.493 125.396 114.548C125.404 114.106 125.404 114.106 125.413 113.655C125.443 112.487 125.487 111.506 125.858 110.391C126.929 110.034 127.686 109.985 128.808 109.967C129.388 109.956 129.388 109.956 129.981 109.946C130.398 109.94 130.816 109.934 131.246 109.928C131.674 109.921 132.101 109.913 132.542 109.906C133.91 109.883 135.279 109.862 136.647 109.841C137.574 109.826 138.501 109.811 139.427 109.795C141.701 109.757 143.975 109.723 146.249 109.688C146.249 104.351 146.249 99.0141 146.249 93.5157C136.852 93.5157 127.455 93.5157 117.773 93.5157ZM132.538 116.719C132.538 119.503 132.538 122.288 132.538 125.156C137.063 125.156 141.587 125.156 146.249 125.156C146.249 122.372 146.249 119.588 146.249 116.719C141.724 116.719 137.2 116.719 132.538 116.719ZM108.983 132.188C108.983 134.972 108.983 137.756 108.983 140.625C116.176 140.625 123.369 140.625 130.78 140.625C130.78 137.841 130.78 135.056 130.78 132.188C123.587 132.188 116.394 132.188 108.983 132.188ZM138.163 132.188C138.163 134.972 138.163 137.756 138.163 140.625C140.832 140.625 143.5 140.625 146.249 140.625C146.249 137.841 146.249 135.056 146.249 132.188C143.581 132.188 140.912 132.188 138.163 132.188ZM81.5616 147.656C81.5616 150.441 81.5616 153.225 81.5616 156.094C87.1303 156.094 92.6991 156.094 98.4366 156.094C98.4366 153.309 98.4366 150.525 98.4366 147.656C92.8678 147.656 87.2991 147.656 81.5616 147.656ZM105.819 147.656C105.819 150.441 105.819 153.225 105.819 156.094C111.272 156.094 116.725 156.094 122.343 156.094C122.343 153.309 122.343 150.525 122.343 147.656C116.89 147.656 111.437 147.656 105.819 147.656ZM129.726 147.656C129.726 150.441 129.726 153.225 129.726 156.094C135.178 156.094 140.631 156.094 146.249 156.094C146.249 153.309 146.249 150.525 146.249 147.656C140.796 147.656 135.344 147.656 129.726 147.656ZM22.1475 163.125C22.1475 166.374 22.1475 169.622 22.1475 172.969C66.9296 172.969 111.712 172.969 157.851 172.969C157.851 169.72 157.851 166.472 157.851 163.125C113.069 163.125 68.2866 163.125 22.1475 163.125Z" fill="#FC883D"/>
<path d="M31.993 108.281C33.0772 109.004 33.6396 109.496 33.906 110.797C33.9805 112.241 33.8692 113.014 33.0916 114.258C31.9578 115.325 31.1336 115.458 29.5691 115.432C28.185 115.209 27.639 114.609 26.7195 113.555C26.3462 112.248 26.2745 111.437 26.6316 110.127C27.8726 107.893 29.5872 107.617 31.993 108.281Z" fill="#FC883D"/>
</g>
<defs>
<clipPath id="clip0_240_18">
<rect width="180" height="180" fill="white"/>
</clipPath>
</defs>
</svg>
