<svg width="163" height="57" viewBox="0 0 163 57" fill="none" xmlns="http://www.w3.org/2000/svg">
<path d="M2.12109 41.1328L24.8434 2.19789" stroke="#FC883D" stroke-width="2.45646" stroke-linecap="round"/>
<path d="M2.12109 54.7656L24.5977 16.1992" stroke="#FC883D" stroke-width="2.45646" stroke-linecap="round"/>
<path d="M14.0078 47.8711L28.5307 22.9553" stroke="#FC883D" stroke-width="2.45646" stroke-linecap="round"/>
<path d="M2.24609 54.8887H47.3264" stroke="#FC883D" stroke-width="2.45646" stroke-linecap="round"/>
<path d="M18.457 41.4727H47.9346" stroke="#FC883D" stroke-width="2.45646" stroke-linecap="round"/>
<path d="M13.9141 48.1348H59.8499" stroke="#FC883D" stroke-width="2.45646" stroke-linecap="round"/>
<path d="M2 41.3789H9.86068" stroke="#FC883D" stroke-width="2.45646" stroke-linecap="round"/>
<path d="M36.8789 8.33984L32.8304 15.0778" stroke="#FC883D" stroke-width="2.45646" stroke-linecap="round"/>
<path d="M25.0117 2L47.9583 41.3157" stroke="#FC883D" stroke-width="2.45646" stroke-miterlimit="1.07479" stroke-linecap="round"/>
<path d="M24.7227 16.0781L47.3083 54.7754" stroke="#FC883D" stroke-width="2.45646" stroke-miterlimit="1.07479" stroke-linecap="round"/>
<path d="M36.9062 8.39453L60.0671 48.0772" stroke="#FC883D" stroke-width="2.45646" stroke-miterlimit="1.07479" stroke-linecap="round"/>
<path d="M76.512 13.248C77.168 13.248 77.7413 13.32 78.232 13.464C78.7227 13.608 79.1173 13.76 79.416 13.92C79.7147 14.08 79.896 14.1867 79.96 14.24L78.808 16.168C78.7227 16.104 78.576 16.0107 78.368 15.888C78.1653 15.7653 77.9227 15.656 77.64 15.56C77.3627 15.464 77.072 15.416 76.768 15.416C76.3573 15.416 76.024 15.4907 75.768 15.64C75.5173 15.784 75.392 16 75.392 16.288C75.392 16.4853 75.4587 16.664 75.592 16.824C75.7307 16.9787 75.9387 17.128 76.216 17.272C76.4987 17.4107 76.856 17.5627 77.288 17.728C77.6827 17.872 78.0533 18.0427 78.4 18.24C78.7467 18.4373 79.0507 18.672 79.312 18.944C79.5787 19.2107 79.7893 19.52 79.944 19.872C80.0987 20.224 80.176 20.624 80.176 21.072C80.176 21.6053 80.0667 22.0693 79.848 22.464C79.6293 22.8533 79.3307 23.176 78.952 23.432C78.5787 23.688 78.152 23.8773 77.672 24C77.1973 24.128 76.704 24.192 76.192 24.192C75.4667 24.192 74.816 24.1093 74.24 23.944C73.6693 23.7787 73.208 23.6 72.856 23.408C72.504 23.216 72.2933 23.088 72.224 23.024L73.416 21.016C73.48 21.064 73.6027 21.1413 73.784 21.248C73.9707 21.3547 74.1973 21.4667 74.464 21.584C74.7307 21.696 75.0133 21.792 75.312 21.872C75.616 21.952 75.9147 21.992 76.208 21.992C76.6987 21.992 77.0667 21.8987 77.312 21.712C77.5573 21.52 77.68 21.2693 77.68 20.96C77.68 20.7307 77.6027 20.5253 77.448 20.344C77.2933 20.1627 77.0613 19.992 76.752 19.832C76.4427 19.6667 76.056 19.4933 75.592 19.312C75.128 19.1253 74.6933 18.8987 74.288 18.632C73.888 18.3653 73.5627 18.032 73.312 17.632C73.0613 17.232 72.936 16.736 72.936 16.144C72.936 15.552 73.1013 15.04 73.432 14.608C73.768 14.1707 74.208 13.8347 74.752 13.6C75.3013 13.3653 75.888 13.248 76.512 13.248ZM87.6491 19.752H84.0011V24H81.6171V13.44H84.0011V17.664H87.6491V13.44H90.0251V24H87.6491V19.752ZM91.7879 13.44H96.0919C96.7052 13.44 97.2519 13.568 97.7319 13.824C98.2119 14.08 98.5905 14.4507 98.8679 14.936C99.1505 15.416 99.2919 15.9893 99.2919 16.656C99.2919 17.3227 99.1719 17.8693 98.9319 18.296C98.6972 18.7173 98.4145 19.0347 98.0839 19.248C97.7532 19.456 97.4465 19.5813 97.1639 19.624L99.7319 24H97.0439L94.7559 19.808H94.1799V24H91.7879V13.44ZM94.1799 18.152H95.2359C95.6625 18.152 96.0359 18.048 96.3559 17.84C96.6759 17.632 96.8359 17.264 96.8359 16.736C96.8359 16.208 96.6785 15.8427 96.3639 15.64C96.0492 15.432 95.6785 15.328 95.2519 15.328H94.1799V18.152ZM101.305 13.44H108.049V15.536H103.689V17.688H108.009V19.72H103.689V21.904H108.049V24H101.305V13.44ZM109.852 13.44H116.596V15.536H112.236V17.688H116.556V19.72H112.236V21.904H116.596V24H109.852V13.44ZM76.088 28.44H78.464L82.632 39H80.08L79.312 36.88H75.248L74.472 39H71.912L76.088 28.44ZM76.048 34.784H78.52L77.296 31.32H77.272L76.048 34.784ZM87.3245 28.248C87.9805 28.248 88.5538 28.32 89.0445 28.464C89.5352 28.608 89.9298 28.76 90.2285 28.92C90.5272 29.08 90.7085 29.1867 90.7725 29.24L89.6205 31.168C89.5352 31.104 89.3885 31.0107 89.1805 30.888C88.9778 30.7653 88.7352 30.656 88.4525 30.56C88.1752 30.464 87.8845 30.416 87.5805 30.416C87.1698 30.416 86.8365 30.4907 86.5805 30.64C86.3298 30.784 86.2045 31 86.2045 31.288C86.2045 31.4853 86.2712 31.664 86.4045 31.824C86.5432 31.9787 86.7512 32.128 87.0285 32.272C87.3112 32.4107 87.6685 32.5627 88.1005 32.728C88.4952 32.872 88.8658 33.0427 89.2125 33.24C89.5592 33.4373 89.8632 33.672 90.1245 33.944C90.3912 34.2107 90.6018 34.52 90.7565 34.872C90.9112 35.224 90.9885 35.624 90.9885 36.072C90.9885 36.6053 90.8792 37.0693 90.6605 37.464C90.4418 37.8533 90.1432 38.176 89.7645 38.432C89.3912 38.688 88.9645 38.8773 88.4845 39C88.0098 39.128 87.5165 39.192 87.0045 39.192C86.2792 39.192 85.6285 39.1093 85.0525 38.944C84.4818 38.7787 84.0205 38.6 83.6685 38.408C83.3165 38.216 83.1058 38.088 83.0365 38.024L84.2285 36.016C84.2925 36.064 84.4152 36.1413 84.5965 36.248C84.7832 36.3547 85.0098 36.4667 85.2765 36.584C85.5432 36.696 85.8258 36.792 86.1245 36.872C86.4285 36.952 86.7272 36.992 87.0205 36.992C87.5112 36.992 87.8792 36.8987 88.1245 36.712C88.3698 36.52 88.4925 36.2693 88.4925 35.96C88.4925 35.7307 88.4152 35.5253 88.2605 35.344C88.1058 35.1627 87.8738 34.992 87.5645 34.832C87.2552 34.6667 86.8685 34.4933 86.4045 34.312C85.9405 34.1253 85.5058 33.8987 85.1005 33.632C84.7005 33.3653 84.3752 33.032 84.1245 32.632C83.8738 32.232 83.7485 31.736 83.7485 31.144C83.7485 30.552 83.9138 30.04 84.2445 29.608C84.5805 29.1707 85.0205 28.8347 85.5645 28.6C86.1138 28.3653 86.7005 28.248 87.3245 28.248ZM96.2776 28.248C96.9336 28.248 97.507 28.32 97.9976 28.464C98.4883 28.608 98.883 28.76 99.1816 28.92C99.4803 29.08 99.6616 29.1867 99.7256 29.24L98.5736 31.168C98.4883 31.104 98.3416 31.0107 98.1336 30.888C97.931 30.7653 97.6883 30.656 97.4056 30.56C97.1283 30.464 96.8376 30.416 96.5336 30.416C96.123 30.416 95.7896 30.4907 95.5336 30.64C95.283 30.784 95.1576 31 95.1576 31.288C95.1576 31.4853 95.2243 31.664 95.3576 31.824C95.4963 31.9787 95.7043 32.128 95.9816 32.272C96.2643 32.4107 96.6216 32.5627 97.0536 32.728C97.4483 32.872 97.819 33.0427 98.1656 33.24C98.5123 33.4373 98.8163 33.672 99.0776 33.944C99.3443 34.2107 99.555 34.52 99.7096 34.872C99.8643 35.224 99.9416 35.624 99.9416 36.072C99.9416 36.6053 99.8323 37.0693 99.6136 37.464C99.395 37.8533 99.0963 38.176 98.7176 38.432C98.3443 38.688 97.9176 38.8773 97.4376 39C96.963 39.128 96.4696 39.192 95.9576 39.192C95.2323 39.192 94.5816 39.1093 94.0056 38.944C93.435 38.7787 92.9736 38.6 92.6216 38.408C92.2696 38.216 92.059 38.088 91.9896 38.024L93.1816 36.016C93.2456 36.064 93.3683 36.1413 93.5496 36.248C93.7363 36.3547 93.963 36.4667 94.2296 36.584C94.4963 36.696 94.779 36.792 95.0776 36.872C95.3816 36.952 95.6803 36.992 95.9736 36.992C96.4643 36.992 96.8323 36.8987 97.0776 36.712C97.323 36.52 97.4456 36.2693 97.4456 35.96C97.4456 35.7307 97.3683 35.5253 97.2136 35.344C97.059 35.1627 96.827 34.992 96.5176 34.832C96.2083 34.6667 95.8216 34.4933 95.3576 34.312C94.8936 34.1253 94.459 33.8987 94.0536 33.632C93.6536 33.3653 93.3283 33.032 93.0776 32.632C92.827 32.232 92.7016 31.736 92.7016 31.144C92.7016 30.552 92.867 30.04 93.1976 29.608C93.5336 29.1707 93.9736 28.8347 94.5176 28.6C95.067 28.3653 95.6536 28.248 96.2776 28.248ZM103.535 33.712C103.535 34.3147 103.657 34.8613 103.903 35.352C104.153 35.8373 104.497 36.224 104.935 36.512C105.377 36.8 105.889 36.944 106.471 36.944C107.052 36.944 107.561 36.8 107.999 36.512C108.441 36.224 108.785 35.8373 109.031 35.352C109.281 34.8613 109.407 34.3147 109.407 33.712C109.407 33.1093 109.281 32.5653 109.031 32.08C108.785 31.5947 108.441 31.208 107.999 30.92C107.561 30.6267 107.052 30.48 106.471 30.48C105.889 30.48 105.377 30.6267 104.935 30.92C104.497 31.208 104.153 31.5947 103.903 32.08C103.657 32.5653 103.535 33.1093 103.535 33.712ZM101.047 33.712C101.047 32.944 101.183 32.2293 101.455 31.568C101.727 30.9013 102.108 30.32 102.599 29.824C103.089 29.328 103.665 28.9413 104.327 28.664C104.988 28.3867 105.703 28.248 106.471 28.248C107.249 28.248 107.967 28.3867 108.623 28.664C109.284 28.9413 109.857 29.328 110.343 29.824C110.833 30.32 111.212 30.9013 111.479 31.568C111.751 32.2293 111.887 32.944 111.887 33.712C111.887 34.4853 111.756 35.2053 111.495 35.872C111.233 36.5333 110.86 37.1147 110.375 37.616C109.889 38.112 109.316 38.4987 108.655 38.776C107.993 39.0533 107.265 39.192 106.471 39.192C105.66 39.192 104.921 39.0533 104.255 38.776C103.593 38.4987 103.023 38.112 102.543 37.616C102.063 37.1147 101.692 36.5333 101.431 35.872C101.175 35.2053 101.047 34.4853 101.047 33.712ZM118.85 36.824C119.34 36.824 119.786 36.752 120.186 36.608C120.591 36.464 120.892 36.3227 121.09 36.184L122.114 38.216C121.863 38.4293 121.434 38.6453 120.826 38.864C120.223 39.0827 119.506 39.192 118.674 39.192C117.895 39.192 117.164 39.056 116.482 38.784C115.799 38.512 115.196 38.1307 114.674 37.64C114.156 37.144 113.748 36.5653 113.45 35.904C113.156 35.2373 113.01 34.5147 113.01 33.736C113.01 32.9573 113.156 32.2347 113.45 31.568C113.743 30.896 114.148 30.312 114.666 29.816C115.188 29.32 115.791 28.936 116.474 28.664C117.162 28.3867 117.895 28.248 118.674 28.248C119.506 28.248 120.223 28.3573 120.826 28.576C121.434 28.7947 121.863 29.0107 122.114 29.224L121.09 31.256C120.892 31.112 120.591 30.9707 120.186 30.832C119.786 30.688 119.34 30.616 118.85 30.616C118.306 30.616 117.831 30.7013 117.426 30.872C117.02 31.0373 116.682 31.2667 116.41 31.56C116.138 31.8533 115.935 32.184 115.802 32.552C115.668 32.92 115.602 33.3067 115.602 33.712C115.602 34.1227 115.668 34.5147 115.802 34.888C115.935 35.256 116.138 35.5867 116.41 35.88C116.682 36.1733 117.02 36.4053 117.426 36.576C117.831 36.7413 118.306 36.824 118.85 36.824ZM123.658 28.44H126.05V39H123.658V28.44ZM131.322 28.44H133.698L137.866 39H135.314L134.546 36.88H130.482L129.706 39H127.146L131.322 28.44ZM131.282 34.784H133.754L132.53 31.32H132.506L131.282 34.784ZM139.648 30.536H137.128V28.44H144.552V30.536H142.04V39H139.648V30.536ZM145.836 28.44H152.58V30.536H148.22V32.688H152.54V34.72H148.22V36.904H152.58V39H145.836V28.44ZM158.231 28.248C158.887 28.248 159.46 28.32 159.951 28.464C160.441 28.608 160.836 28.76 161.135 28.92C161.433 29.08 161.615 29.1867 161.679 29.24L160.527 31.168C160.441 31.104 160.295 31.0107 160.087 30.888C159.884 30.7653 159.641 30.656 159.359 30.56C159.081 30.464 158.791 30.416 158.487 30.416C158.076 30.416 157.743 30.4907 157.487 30.64C157.236 30.784 157.111 31 157.111 31.288C157.111 31.4853 157.177 31.664 157.311 31.824C157.449 31.9787 157.657 32.128 157.935 32.272C158.217 32.4107 158.575 32.5627 159.007 32.728C159.401 32.872 159.772 33.0427 160.119 33.24C160.465 33.4373 160.769 33.672 161.031 33.944C161.297 34.2107 161.508 34.52 161.663 34.872C161.817 35.224 161.895 35.624 161.895 36.072C161.895 36.6053 161.785 37.0693 161.567 37.464C161.348 37.8533 161.049 38.176 160.671 38.432C160.297 38.688 159.871 38.8773 159.391 39C158.916 39.128 158.423 39.192 157.911 39.192C157.185 39.192 156.535 39.1093 155.959 38.944C155.388 38.7787 154.927 38.6 154.575 38.408C154.223 38.216 154.012 38.088 153.943 38.024L155.135 36.016C155.199 36.064 155.321 36.1413 155.503 36.248C155.689 36.3547 155.916 36.4667 156.183 36.584C156.449 36.696 156.732 36.792 157.031 36.872C157.335 36.952 157.633 36.992 157.927 36.992C158.417 36.992 158.785 36.8987 159.031 36.712C159.276 36.52 159.399 36.2693 159.399 35.96C159.399 35.7307 159.321 35.5253 159.167 35.344C159.012 35.1627 158.78 34.992 158.471 34.832C158.161 34.6667 157.775 34.4933 157.311 34.312C156.847 34.1253 156.412 33.8987 156.007 33.632C155.607 33.3653 155.281 33.032 155.031 32.632C154.78 32.232 154.655 31.736 154.655 31.144C154.655 30.552 154.82 30.04 155.151 29.608C155.487 29.1707 155.927 28.8347 156.471 28.6C157.02 28.3653 157.607 28.248 158.231 28.248Z" fill="#FC883D"/>
</svg>
