<svg width="183" height="183" viewBox="0 0 183 183" fill="none" xmlns="http://www.w3.org/2000/svg">
<g clip-path="url(#clip0_240_21)">
<path d="M94.2776 0.398323C95.3662 0.964769 96.4139 1.57542 97.4636 2.21109C98.257 2.67372 99.0505 3.13632 99.844 3.59889C100.242 3.83444 100.639 4.07 101.049 4.31269C102.811 5.35039 104.594 6.34848 106.377 7.34903C107.054 7.73176 107.73 8.11478 108.407 8.49808C109.785 9.27858 111.165 10.0575 112.545 10.8353C112.896 11.0334 113.248 11.2315 113.61 11.4356C114.26 11.8024 114.911 12.169 115.562 12.5352C118.875 14.4049 122.164 16.3184 125.454 18.2281C125.455 18.0305 125.457 17.833 125.458 17.6295C125.473 15.571 125.498 13.5127 125.528 11.4544C125.538 10.6865 125.546 9.91863 125.551 9.15071C125.559 8.04593 125.575 6.94161 125.594 5.83696C125.594 5.49437 125.595 5.15178 125.595 4.7988C125.629 3.25526 125.667 2.37721 126.495 1.04205C127.709 -0.0728863 128.455 -0.0504373 130.076 -0.0693967C130.521 -0.0751379 130.966 -0.0808792 131.424 -0.0867944C131.913 -0.0909001 132.401 -0.0946918 132.889 -0.0981929C133.257 -0.101047 133.257 -0.101047 133.633 -0.103959C134.933 -0.113511 136.233 -0.120437 137.532 -0.125593C138.608 -0.13036 139.683 -0.140314 140.758 -0.154913C142.056 -0.172548 143.355 -0.181394 144.653 -0.183934C145.148 -0.186332 145.642 -0.19177 146.136 -0.200336C146.829 -0.211658 147.522 -0.210589 148.215 -0.209015C148.609 -0.211905 149.003 -0.214795 149.409 -0.217773C150.819 0.0699659 151.351 0.700351 152.261 1.78665C152.838 2.9408 152.664 4.20232 152.659 5.46994C152.659 5.77683 152.659 6.08371 152.659 6.3999C152.659 7.41717 152.656 8.43441 152.653 9.45167C152.652 10.1558 152.652 10.86 152.652 11.5642C152.65 13.4198 152.647 15.2754 152.643 17.1311C152.639 19.0237 152.637 20.9163 152.636 22.8089C152.632 26.5242 152.626 30.2394 152.618 33.9546C152.956 34.0644 153.293 34.1742 153.641 34.2873C154.619 34.6203 155.413 34.9831 156.3 35.5016C156.586 35.667 156.871 35.8324 157.166 36.0028C157.471 36.182 157.777 36.3613 158.091 36.5459C158.764 36.9354 159.436 37.3244 160.109 37.7131C160.461 37.917 160.813 38.1209 161.176 38.3309C163.02 39.3905 164.879 40.4246 166.736 41.4605C169.6 43.0615 172.462 44.6655 175.315 46.2857C175.611 46.4529 175.907 46.6202 176.213 46.7925C181.794 49.9725 181.794 49.9725 182.999 51.8257C183.323 53.456 183.211 54.7036 182.329 56.1148C181.054 57.3149 180.038 57.3719 178.332 57.3544C176.251 57.0231 174.569 55.815 172.813 54.7074C172.426 54.4718 172.039 54.2361 171.64 53.9933C170.929 53.5602 170.22 53.1238 169.514 52.6831C168.731 52.1844 168.731 52.1844 167.987 51.8257C167.988 52.232 167.988 52.232 167.989 52.6464C168.013 68.6889 168.031 84.7314 168.042 100.774C168.043 102.699 168.045 104.624 168.046 106.549C168.047 106.933 168.047 107.316 168.047 107.711C168.052 113.921 168.06 120.132 168.07 126.342C168.08 132.712 168.086 139.081 168.088 145.451C168.09 149.383 168.094 153.316 168.103 157.248C168.109 159.942 168.11 162.637 168.109 165.331C168.108 166.887 168.109 168.443 168.115 169.999C168.12 171.422 168.121 172.846 168.117 174.27C168.117 174.785 168.118 175.301 168.121 175.817C168.126 176.517 168.123 177.216 168.119 177.916C168.12 178.5 168.12 178.5 168.121 179.095C167.967 180.301 167.624 180.949 166.915 181.927C166.767 182.138 166.618 182.349 166.465 182.567C165.477 183.254 164.584 183.135 163.394 183.136C163.142 183.138 162.89 183.14 162.631 183.142C161.781 183.146 160.931 183.143 160.081 183.141C159.468 183.142 158.855 183.144 158.242 183.147C156.553 183.153 154.864 183.152 153.174 183.15C151.354 183.149 149.534 183.154 147.714 183.159C144.146 183.166 140.579 183.168 137.011 183.167C134.112 183.167 131.213 183.168 128.314 183.171C127.481 183.172 126.647 183.172 125.813 183.173C125.398 183.173 124.983 183.174 124.555 183.174C116.7 183.181 108.845 183.181 100.99 183.178C93.7983 183.176 86.6069 183.184 79.4155 183.195C72.0375 183.207 64.6596 183.213 57.2817 183.211C53.1371 183.21 48.9925 183.212 44.8478 183.221C41.3193 183.229 37.7909 183.23 34.2624 183.223C32.4611 183.22 30.66 183.22 28.8587 183.227C27.2108 183.234 25.5632 183.232 23.9154 183.224C23.3181 183.222 22.7209 183.224 22.1237 183.229C21.3137 183.235 20.5044 183.23 19.6943 183.222C19.2439 183.223 18.7935 183.223 18.3294 183.223C16.8325 182.938 16.3079 182.387 15.3682 181.212C14.9823 180.055 14.9664 179.222 14.9668 178.004C14.9661 177.555 14.9654 177.106 14.9647 176.643C14.9657 176.142 14.9667 175.641 14.9678 175.14C14.9677 174.61 14.9674 174.08 14.9669 173.549C14.9661 172.089 14.9675 170.628 14.9693 169.168C14.9709 167.594 14.9703 166.02 14.9701 164.447C14.9699 161.719 14.971 158.991 14.973 156.263C14.9759 152.32 14.9769 148.376 14.9773 144.432C14.9781 138.034 14.9805 131.636 14.9838 125.237C14.9871 119.021 14.9896 112.805 14.9912 106.589C14.9913 106.206 14.9914 105.823 14.9915 105.428C14.9919 103.507 14.9924 101.585 14.9928 99.6641C14.9965 83.718 15.0028 67.7719 15.0108 51.8257C13.7444 52.531 12.4784 53.2371 11.2128 53.944C10.7819 54.1845 10.351 54.4247 9.9199 54.6648C9.30122 55.0093 8.68301 55.3547 8.06481 55.7001C7.69233 55.9079 7.31985 56.1156 6.93609 56.3297C6.11972 56.7546 6.11972 56.7546 5.71783 57.187C3.96433 57.3851 2.57632 57.452 1.04901 56.5169C0.0750649 55.4487 -0.0935417 54.7652 -0.179626 53.3448C-0.205428 53.0444 -0.231229 52.744 -0.257812 52.4344C0.23229 50.5912 1.8472 49.7269 3.40629 48.7656C4.45891 48.1609 5.52139 47.5783 6.58905 47.0005C7.39177 46.5591 8.1941 46.1169 8.99606 45.6741C9.40267 45.4499 9.80927 45.2256 10.2282 44.9946C12.1 43.9495 13.946 42.8619 15.7927 41.7732C18.8024 40.0037 21.8423 38.3054 24.9156 36.6491C27.3628 35.3239 29.7689 33.9367 32.1671 32.5249C35.1991 30.74 38.2596 29.0253 41.3567 27.3563C43.804 26.0309 46.2102 24.6438 48.6085 23.232C51.6405 21.447 54.701 19.7324 57.7981 18.0633C60.2454 16.738 62.6516 15.3508 65.0499 13.939C68.1057 12.1406 71.1891 10.4086 74.3086 8.72322C76.6009 7.48262 78.8722 6.20956 81.1339 4.91409C81.4458 4.73653 81.7577 4.55898 82.0791 4.37604C83.4552 3.59014 84.8214 2.79581 86.1643 1.95419C86.4957 1.75118 86.4957 1.75118 86.8338 1.54406C87.4035 1.1933 87.9682 0.834174 88.5322 0.474241C90.5286 -0.329025 92.2599 -0.413308 94.2776 0.398323ZM133.675 7.86282C133.675 12.9346 133.675 18.0065 133.675 23.232C135.238 24.1018 136.801 24.9717 138.411 25.8679C138.902 26.1413 139.392 26.4147 139.898 26.6964C140.286 26.9123 140.675 27.1282 141.075 27.3507C141.471 27.5716 141.868 27.7924 142.277 28.02C143.094 28.4667 143.922 28.8918 144.755 29.3081C144.755 22.2312 144.755 15.1542 144.755 7.86282C141.099 7.86282 137.442 7.86282 133.675 7.86282ZM89.6184 9.33998C89.3113 9.50769 89.0043 9.6754 88.6879 9.84819C88.355 10.0334 88.0221 10.2186 87.6791 10.4095C87.331 10.6011 86.983 10.7928 86.6243 10.9903C83.6902 12.6155 80.7955 14.3057 77.9049 16.0069C75.2327 17.5747 72.5268 19.0677 69.7997 20.5373C67.3524 21.8627 64.9462 23.2498 62.5479 24.6616C59.5159 26.4466 56.4554 28.1613 53.3583 29.8303C50.911 31.1556 48.5048 32.5428 46.1065 33.9546C43.3913 35.553 40.6594 37.1064 37.8858 38.6011C33.9773 40.7077 30.1461 42.9392 26.3227 45.196C25.178 45.8653 24.0255 46.5213 22.8741 47.1792C22.8741 89.405 22.8741 131.631 22.8741 175.136C68.1666 175.136 113.459 175.136 160.124 175.136C160.249 154.097 160.375 133.058 160.504 111.381C160.559 104.733 160.614 98.0857 160.671 91.2365C160.692 85.2872 160.692 85.2872 160.704 79.3378C160.71 76.6838 160.732 74.0305 160.766 71.3767C160.804 68.316 160.822 65.256 160.813 62.195C160.81 60.6288 160.816 59.0643 160.848 57.4984C161.246 51.6581 161.246 51.6581 159.533 46.3457C158.131 45.0692 156.6 44.3973 154.8 43.8529C153.648 43.4731 152.685 42.8805 151.645 42.2591C150.89 41.8434 150.135 41.4283 149.379 41.0137C146.227 39.2747 143.099 37.5009 139.997 35.6747C136.975 33.8971 133.925 32.1874 130.841 30.521C128.321 29.1573 125.831 27.748 123.347 26.3201C120.902 24.9157 118.445 23.5343 115.982 22.1597C112.932 20.456 109.892 18.7359 106.862 16.9965C103.961 15.3345 101.043 13.7049 98.1198 12.0828C96.3046 11.0716 94.5223 10.0458 92.7973 8.88613C91.5616 8.23273 90.7378 8.7253 89.6184 9.33998Z" fill="#FC883D"/>
<path d="M110.102 39.3416C110.372 39.4535 110.643 39.5655 110.922 39.6809C111.806 40.0475 112.688 40.419 113.57 40.7908C114.186 41.0479 114.803 41.3047 115.42 41.5612C116.695 42.0922 117.97 42.6253 119.244 43.1598C121.112 43.9422 122.984 44.7144 124.856 45.4848C125.729 45.8447 126.602 46.205 127.474 46.5654C128.029 46.7944 128.584 47.023 129.139 47.2511C129.915 47.5701 130.689 47.8912 131.463 48.2129C131.687 48.3046 131.912 48.3964 132.143 48.4909C136.138 50.1605 136.138 50.1605 137.249 51.8262C138.122 55.3221 135.942 58.929 134.59 62.0351C134.313 62.6863 134.036 63.3379 133.76 63.9897C133.186 65.3424 132.609 66.6938 132.03 68.0444C130.832 70.8453 129.67 73.6612 128.508 76.4771C127.879 78.0006 127.247 79.523 126.616 81.0454C126.362 81.656 126.109 82.2666 125.856 82.8772C118.261 101.195 118.261 101.195 117.881 102.111C117.628 102.722 117.374 103.333 117.121 103.945C116.492 105.461 115.863 106.978 115.233 108.495C114.045 111.356 112.86 114.219 111.686 117.086C111.131 118.441 110.574 119.794 110.017 121.148C109.752 121.794 109.488 122.44 109.225 123.086C108.86 123.982 108.492 124.877 108.123 125.772C108.017 126.035 107.911 126.298 107.801 126.569C106.749 129.108 105.471 130.95 103.249 132.604C102.802 132.946 102.355 133.288 101.907 133.63C101.67 133.81 101.432 133.99 101.187 134.175C100.124 134.984 99.0728 135.806 98.0206 136.628C95.5493 138.557 93.0676 140.473 90.5801 142.381C89.6257 143.115 88.6756 143.855 87.7263 144.595C87.4414 144.818 87.1564 145.04 86.8628 145.269C86.3054 145.704 85.7483 146.14 85.1916 146.576C84.4375 147.164 83.6805 147.749 82.9207 148.33C82.5757 148.594 82.5757 148.594 82.2238 148.864C80.5683 150.095 79.6053 150.475 77.5594 150.475C76.5541 150.028 76.5541 150.028 75.7723 149.402C75.5897 149.273 75.4072 149.143 75.2191 149.01C74.3994 147.936 74.3553 146.709 74.1904 145.404C74.1477 145.094 74.1051 144.785 74.0611 144.466C73.9119 143.372 73.7699 142.277 73.6277 141.182C73.5105 140.306 73.393 139.43 73.2754 138.554C72.9509 136.123 72.6362 133.69 72.3252 131.257C72.1629 129.989 71.9974 128.721 71.8312 127.454C71.7016 126.46 71.5743 125.466 71.4477 124.471C71.3591 123.781 71.268 123.09 71.1768 122.4C70.2364 114.926 70.2364 114.926 71.8057 111.422C71.916 111.159 72.0263 110.896 72.14 110.624C72.5023 109.764 72.8751 108.909 73.248 108.053C73.5087 107.439 73.7686 106.825 74.0278 106.21C74.57 104.927 75.1159 103.645 75.6648 102.364C76.8439 99.6072 77.984 96.8341 79.1275 94.0621C79.76 92.5305 80.3959 91.0003 81.0317 89.47C82.4297 86.1036 83.8261 82.7366 85.222 79.3693C85.8547 77.843 86.4876 76.3168 87.1204 74.7906C87.3736 74.18 87.6268 73.5694 87.8799 72.9588C89.399 69.2952 89.399 69.2952 89.7787 68.3795C90.0321 67.7683 90.2855 67.1571 90.5389 66.5459C91.168 65.0285 91.7973 63.5112 92.4268 61.994C93.6118 59.1379 94.7953 56.2813 95.974 53.4226C96.5296 52.0753 97.0861 50.7283 97.6425 49.3813C97.9071 48.7403 98.1713 48.0992 98.435 47.4579C98.8013 46.5676 99.1688 45.6778 99.5366 44.7881C99.6429 44.5288 99.7491 44.2696 99.8585 44.0025C101.827 39.2552 101.827 39.2552 103.204 38.2218C105.648 37.5171 107.856 38.3847 110.102 39.3416ZM107.225 47.1797C106.807 48.1769 106.39 49.1748 105.974 50.1731C105.855 50.457 105.736 50.7408 105.613 51.0332C105.443 51.4409 105.443 51.4409 105.271 51.8569C105.166 52.1077 105.061 52.3586 104.953 52.617C104.683 53.2549 104.683 53.2549 104.723 53.9707C106.546 54.7397 108.369 55.5083 110.193 56.2766C110.81 56.5368 111.427 56.7971 112.044 57.0574C113.541 57.6887 115.038 58.3186 116.536 58.9455C117.714 59.4387 118.888 59.9405 120.059 60.4488C120.607 60.683 121.155 60.9172 121.702 61.1513C121.952 61.262 122.203 61.3727 122.46 61.4867C123.413 61.89 124.181 62.2024 125.225 62.1452C126.276 61.5871 126.573 60.4528 126.995 59.3991C127.094 59.174 127.193 58.9489 127.295 58.7171C127.67 57.8172 127.978 57.0679 127.888 56.0842C127.499 55.1661 127.129 55.0484 126.215 54.6759C125.921 54.553 125.627 54.43 125.325 54.3034C125.004 54.1756 124.683 54.0479 124.352 53.9163C124.022 53.7798 123.691 53.6432 123.351 53.5025C122.289 53.0652 121.225 52.6355 120.16 52.206C119.457 51.9182 118.754 51.6299 118.052 51.341C116.708 50.789 115.362 50.2402 114.016 49.6944C112.225 48.9678 110.445 48.2191 108.669 47.4568C107.959 47.1374 107.959 47.1374 107.225 47.1797ZM101.507 61.4766C99.9605 64.723 98.5705 68.0102 97.2365 71.3477C95.2619 76.2844 93.2369 81.198 91.1637 86.094C88.5752 92.2099 86.0396 98.3466 83.5345 104.497C82.9775 105.864 82.4143 107.227 81.8416 108.587C81.725 108.865 81.6084 109.144 81.4882 109.431C81.2656 109.962 81.0414 110.492 80.8156 111.022C80.3735 112.079 80.0613 112.86 80.0613 114.018C82.1844 114.843 84.3075 115.669 86.4949 116.52C88.4012 112.494 90.0995 108.398 91.7892 104.278C92.0902 103.546 92.3912 102.815 92.6924 102.084C93.1543 100.962 93.6161 99.8401 94.0775 98.7182C95.4266 95.4385 96.783 92.1619 98.1424 88.8865C98.5123 87.995 98.882 87.1035 99.2516 86.2119C100.426 83.3795 101.602 80.5477 102.78 77.717C103.345 76.361 103.908 75.0048 104.472 73.6485C104.741 73.0016 105.011 72.3549 105.28 71.7082C105.653 70.8134 106.025 69.9182 106.397 69.0229C106.507 68.76 106.617 68.4971 106.731 68.2263C107.311 66.8258 107.838 65.4248 108.298 63.9786C107.368 63.5591 106.437 63.1426 105.505 62.7276C105.11 62.5486 105.11 62.5486 104.706 62.366C104.451 62.2531 104.197 62.1402 103.935 62.0239C103.701 61.9191 103.467 61.8143 103.226 61.7063C102.525 61.4168 102.525 61.4168 101.507 61.4766ZM115.446 67.1953C115.301 67.5502 115.156 67.9051 115.006 68.2708C112.287 74.9169 109.558 81.5589 106.791 88.1852C104.506 93.6552 102.243 99.1338 99.9832 104.614C98.7783 107.535 97.5734 110.457 96.3491 113.37C96.1781 113.777 96.0071 114.185 95.8309 114.604C95.5304 115.319 95.2289 116.032 94.926 116.745C94.7999 117.045 94.6738 117.345 94.5439 117.653C94.4374 117.904 94.3309 118.155 94.2211 118.414C93.9602 119.026 93.9602 119.026 94.0008 119.736C94.998 120.155 95.9958 120.572 96.9942 120.987C97.4199 121.166 97.4199 121.166 97.8542 121.349C98.262 121.518 98.262 121.518 98.678 121.691C98.9288 121.796 99.1796 121.901 99.438 122.009C100.076 122.279 100.076 122.279 100.792 122.238C104.833 112.547 108.869 102.854 112.887 93.1531C113.813 90.9173 114.741 88.6822 115.669 86.4473C116.081 85.457 116.492 84.4667 116.903 83.4764C117.163 82.8512 117.422 82.2261 117.682 81.601C118.912 78.6436 120.138 75.6847 121.339 72.7158C121.513 72.2874 121.687 71.859 121.866 71.4176C122.278 70.479 122.278 70.479 122.237 69.6973C121.24 69.2788 120.242 68.862 119.244 68.4463C118.96 68.327 118.676 68.2077 118.384 68.0847C118.112 67.9718 117.84 67.859 117.56 67.7427C117.184 67.5854 117.184 67.5854 116.8 67.425C116.162 67.155 116.162 67.155 115.446 67.1953ZM79.7039 122.596C79.8742 128.004 80.7111 133.334 81.491 138.68C82.7704 138.066 83.8097 137.321 84.9312 136.446C85.1269 136.294 85.3227 136.141 85.5243 135.984C85.9608 135.645 86.3969 135.304 86.8326 134.964C87.6458 134.329 88.4615 133.698 89.2775 133.067C89.8616 132.615 90.4457 132.162 91.0297 131.71C91.3122 131.491 91.5947 131.273 91.8857 131.048C92.1501 130.842 92.4146 130.637 92.687 130.426C92.9232 130.242 93.1594 130.059 93.4028 129.871C94.0411 129.371 94.0411 129.371 94.7156 128.672C92.04 127.269 89.2931 126.068 86.5022 124.917C85.7939 124.625 85.0871 124.329 84.3804 124.033C83.9279 123.846 83.4753 123.658 83.0226 123.471C82.6167 123.303 82.2109 123.135 81.7927 122.961C80.788 122.535 80.788 122.535 79.7039 122.596Z" fill="#FC883D"/>
<path d="M47.5358 148.687C48.5452 149.47 49.1138 150.056 49.6803 151.189C49.7107 151.864 49.7186 152.539 49.7152 153.214C49.7141 153.615 49.7129 154.016 49.7117 154.429C49.7087 154.849 49.7057 155.269 49.7027 155.702C49.701 156.125 49.6994 156.548 49.6978 156.984C49.6935 158.031 49.6877 159.078 49.6803 160.125C49.9525 160.116 50.2246 160.106 50.505 160.097C51.7416 160.059 52.9781 160.036 54.2151 160.013C54.8575 159.991 54.8575 159.991 55.5129 159.968C58.6136 159.925 58.6136 159.925 59.6569 160.506C60.7641 161.591 61.1049 162.469 61.2295 163.99C61.2149 165.142 61.1194 165.484 60.4923 166.514C58.857 168.058 57.4145 168.102 55.2231 168.108C54.9288 168.111 54.6344 168.113 54.3312 168.116C53.7093 168.119 53.0874 168.121 52.4655 168.121C51.5178 168.122 50.5707 168.135 49.6231 168.149C49.0176 168.151 48.4121 168.152 47.8066 168.153C47.5251 168.158 47.2436 168.163 46.9535 168.169C45.0805 168.153 44.0151 167.801 42.5319 166.559C41.5985 165.158 41.7013 163.955 41.697 162.33C41.6946 162.019 41.6922 161.708 41.6898 161.388C41.6861 160.73 41.6845 160.073 41.6846 159.415C41.683 158.412 41.67 157.41 41.6565 156.408C41.6544 155.768 41.653 155.128 41.6523 154.489C41.6471 154.19 41.642 153.892 41.6367 153.585C41.6516 151.667 41.9658 150.564 43.2467 149.045C44.5744 148.381 46.0903 148.478 47.5358 148.687Z" fill="#FC883D"/>
<path d="M125.457 160.056C125.899 160.047 125.899 160.047 126.35 160.038C127.698 160.022 129.047 160.008 130.395 160C131.106 159.994 131.817 159.984 132.528 159.97C133.554 159.951 134.579 159.943 135.604 159.938C135.921 159.93 136.238 159.921 136.565 159.913C138.173 159.919 138.823 159.954 140.123 160.985C141.114 162.294 141.305 163.097 141.284 164.759C141.123 165.912 140.582 166.49 139.753 167.273C138.386 168.217 136.885 168.104 135.288 168.108C134.993 168.11 134.699 168.113 134.396 168.115C133.774 168.119 133.152 168.121 132.53 168.12C131.582 168.122 130.635 168.135 129.687 168.149C129.082 168.151 128.477 168.152 127.871 168.153C127.449 168.16 127.449 168.16 127.018 168.168C125.145 168.153 124.08 167.801 122.596 166.558C121.714 165.235 121.638 164.162 121.881 162.627C122.863 160.827 123.423 160.092 125.457 160.056Z" fill="#FC883D"/>
<path d="M46.8235 95.0738C48.1309 95.8029 48.8499 96.3263 49.6829 97.5757C49.7617 98.6392 49.8001 99.6684 49.8029 100.733C49.8053 101.043 49.8077 101.354 49.8101 101.674C49.8138 102.332 49.8154 102.989 49.8153 103.647C49.8169 104.65 49.8299 105.652 49.8434 106.654C49.8455 107.294 49.8469 107.934 49.8476 108.573C49.8528 108.872 49.8579 109.17 49.8632 109.477C49.8483 111.395 49.5341 112.498 48.2532 114.017C46.9255 114.681 45.4096 114.584 43.9641 114.375C42.9547 113.592 42.3861 113.006 41.8196 111.873C41.771 110.825 41.7435 109.786 41.7344 108.738C41.7315 108.426 41.7286 108.114 41.7257 107.792C41.7207 107.131 41.7169 106.47 41.7141 105.809C41.7079 104.799 41.6923 103.79 41.6765 102.78C41.6729 102.138 41.6698 101.495 41.6674 100.853C41.6611 100.551 41.6549 100.25 41.6484 99.9397C41.6538 98.4847 41.7006 97.7621 42.5021 96.5067C43.8732 95.189 44.9093 94.8441 46.8235 95.0738Z" fill="#FC883D"/>
<path d="M47.5358 68.6249C48.5452 69.4078 49.1138 69.9939 49.6803 71.1269C49.7289 72.1745 49.7564 73.2132 49.7655 74.2613C49.7684 74.5734 49.7713 74.8855 49.7742 75.207C49.7792 75.8683 49.783 76.5296 49.7858 77.1909C49.792 78.2006 49.8076 79.2099 49.8234 80.2195C49.827 80.862 49.8301 81.5045 49.8325 82.1469C49.8388 82.4482 49.845 82.7495 49.8515 83.0599C49.8461 84.5148 49.7993 85.2374 48.9978 86.4928C47.928 87.521 47.267 87.8675 45.7934 88.0598C44.3744 87.8895 43.6415 87.3787 42.5319 86.496C41.5985 85.0959 41.7013 83.8927 41.697 82.267C41.6946 81.9563 41.6922 81.6456 41.6898 81.3254C41.6861 80.6677 41.6845 80.0101 41.6846 79.3524C41.683 78.3498 41.67 77.3477 41.6565 76.3451C41.6544 75.7054 41.653 75.0658 41.6523 74.4261C41.6471 74.1278 41.642 73.8295 41.6367 73.5221C41.6516 71.6043 41.9658 70.5013 43.2467 68.9824C44.5744 68.3185 46.0903 68.4158 47.5358 68.6249Z" fill="#FC883D"/>
<path d="M100.615 159.9C101.105 159.899 101.105 159.899 101.604 159.898C102.293 159.898 102.981 159.903 103.67 159.912C104.722 159.924 105.773 159.919 106.825 159.912C107.495 159.915 108.166 159.918 108.836 159.923C109.306 159.92 109.306 159.92 109.786 159.917C111.262 159.946 112.039 160.004 113.315 160.808C114.551 162.12 114.515 163.209 114.503 164.956C114.376 165.844 114.376 165.844 113.549 166.939C111.924 168.11 110.446 168.056 108.516 168.074C108.221 168.077 107.926 168.079 107.622 168.082C106.998 168.087 106.374 168.091 105.75 168.094C104.8 168.1 103.849 168.116 102.898 168.132C102.291 168.135 101.684 168.138 101.077 168.141C100.795 168.147 100.512 168.153 100.221 168.16C98.3402 168.152 97.2868 167.796 95.7898 166.559C95.073 165.533 94.9798 164.776 95.0973 163.543C95.1162 163.278 95.1351 163.013 95.1546 162.74C96.0808 159.98 98.101 159.862 100.615 159.9Z" fill="#FC883D"/>
<path d="M72.2002 160.056C72.6422 160.047 72.6422 160.047 73.0933 160.038C74.4418 160.022 75.7902 160.008 77.1388 160C77.8498 159.994 78.5609 159.984 79.2718 159.97C80.2973 159.951 81.3222 159.943 82.3478 159.938C82.6647 159.93 82.9816 159.921 83.3081 159.913C84.914 159.919 85.5677 159.957 86.8702 160.98C87.8882 162.339 88.0791 163.452 87.9256 165.129C87.2088 166.589 86.5954 167.438 85.0662 167.988C84.0384 168.061 83.0461 168.097 82.0184 168.096C81.7231 168.097 81.4279 168.099 81.1238 168.1C80.5004 168.102 79.877 168.102 79.2537 168.101C78.3021 168.1 77.3509 168.108 76.3994 168.117C75.7928 168.118 75.1861 168.118 74.5795 168.118C74.1544 168.123 74.1544 168.123 73.7208 168.128C71.7298 168.111 70.6441 167.649 69.059 166.421C68.2982 165.409 68.4611 164.366 68.495 163.145C68.6754 161.928 69.1562 161.301 70.0545 160.482C70.8568 160.081 71.3097 160.072 72.2002 160.056Z" fill="#FC883D"/>
<path d="M47.1812 121.881C48.2624 122.501 49.1177 123.252 49.6832 124.383C49.7853 126.397 49.7953 128.411 49.8083 130.427C49.8142 131.101 49.824 131.775 49.8376 132.449C49.8572 133.422 49.865 134.395 49.8703 135.368C49.8784 135.667 49.8865 135.967 49.8948 136.275C49.8894 137.783 49.7888 138.742 48.8226 139.937C47.5655 141.141 46.828 141.323 45.0744 141.31C43.7443 141.083 43.1055 140.345 42.1773 139.395C41.2623 137.564 41.7079 134.673 41.6948 132.635C41.6888 131.961 41.6791 131.287 41.6654 130.614C41.6458 129.641 41.638 128.668 41.6328 127.695C41.6247 127.395 41.6166 127.096 41.6082 126.787C41.6137 125.28 41.7142 124.32 42.6805 123.126C44.0698 121.795 45.2893 121.558 47.1812 121.881Z" fill="#FC883D"/>
</g>
<defs>
<clipPath id="clip0_240_21">
<rect width="183" height="183" fill="white"/>
</clipPath>
</defs>
</svg>
